<svg xmlns="http://www.w3.org/2000/svg" viewBox="0 0 120 140" fill="none">
  <path d="M60 25c-8 0-15 4-20 10-4 4-7 10-7 16v25c0 6 3 12 7 16 5 6 12 10 20 10s15-4 20-10c4-4 7-10 7-16V51c0-6-3-12-7-16-5-6-12-10-20-10z" stroke="#35A7DD" stroke-width="2.5" fill="none"/>
  <path d="M45 45h30M48 55h24M50 65h20" stroke="#35A7DD" stroke-width="1.5" stroke-linecap="round"/>
  <path d="M55 35c0-2 2-4 5-4s5 2 5 4" stroke="#35A7DD" stroke-width="1.5" fill="none"/>
  <path d="M75 30 Q85 20 95 25 Q100 35 92 40" stroke="#35A7DD" stroke-width="2" fill="none" stroke-linecap="round"/>
  <circle cx="96" cy="38" r="2" fill="#35A7DD"/>
  <circle cx="100" cy="32" r="1.5" fill="#35A7DD"/>
  <circle cx="92" cy="28" r="1" fill="#35A7DD"/>
</svg>
